<svg width="68" height="40" viewBox="0 0 68 40" fill="none" xmlns="http://www.w3.org/2000/svg">
<path d="M65 18.2679C66.3333 19.0377 66.3333 20.9622 65 21.732L41 35.5885C39.6667 36.3583 38 35.396 38 33.8564L38 6.14359C38 4.60399 39.6667 3.64174 41 4.41154L65 18.2679Z" fill="black"/>
<path d="M9.08848 18.95L7.56348 19.025C7.49681 19.025 7.46348 18.9167 7.46348 18.7C7.46348 18.4833 7.53848 18.1167 7.68848 17.6C7.83848 17.0833 8.03014 16.7083 8.26348 16.475C8.49681 16.2417 10.4635 16.125 14.1635 16.125C15.1135 16.125 15.5885 16.1667 15.5885 16.25C15.5885 16.6333 15.4801 17.1583 15.2635 17.825C15.0635 18.475 14.8885 18.9083 14.7385 19.125C14.7218 23.6083 14.6635 25.9333 14.5635 26.1C14.4801 26.2667 14.1801 26.45 13.6635 26.65C13.1468 26.8667 12.7051 26.975 12.3385 26.975C11.9885 26.975 11.8135 26.95 11.8135 26.9C11.8135 26 11.7718 25.4583 11.6885 25.275L11.6385 25.225L11.5635 25.275C10.5801 26.2583 9.29681 26.75 7.71348 26.75C5.54681 26.75 3.91348 26.05 2.81348 24.65C1.73014 23.25 1.18848 21.4417 1.18848 19.225C1.18848 17.3583 1.53014 15.6667 2.21348 14.15C2.64681 13.2 3.19681 12.375 3.86348 11.675C4.54681 10.975 5.48014 10.3917 6.66348 9.925C7.86348 9.45833 9.24681 9.225 10.8135 9.225C11.1635 9.225 11.6468 9.26667 12.2635 9.35C12.8801 9.43333 13.2051 9.5 13.2385 9.55C13.2885 9.6 13.3135 9.78333 13.3135 10.1C13.3135 10.4167 13.2718 10.85 13.1885 11.4C13.1051 11.95 13.0135 12.275 12.9135 12.375C12.3968 12.1083 11.5218 11.975 10.2885 11.975C8.52181 11.975 7.11348 12.5667 6.06348 13.75C5.01348 14.9333 4.48848 16.6667 4.48848 18.95C4.48848 20.4167 4.78848 21.5917 5.38848 22.475C5.98848 23.3583 6.83014 23.8 7.91348 23.8C8.99681 23.8 9.87181 23.5333 10.5385 23C11.2218 22.4667 11.5635 22.0167 11.5635 21.65V20.85C11.5635 19.8333 11.5135 19.275 11.4135 19.175C11.2968 19.025 10.5218 18.95 9.08848 18.95ZM24.135 26.75C21.6516 26.75 19.81 26.0333 18.61 24.6C17.4266 23.1667 16.835 21.3667 16.835 19.2C16.835 18.15 16.96 17.1667 17.21 16.25C17.46 15.3333 17.6933 14.6833 17.91 14.3C18.1266 13.9167 18.3016 13.6917 18.435 13.625C18.5683 13.5417 19.0933 13.5 20.01 13.5H20.485C20.485 12.6667 20.6433 11.9417 20.96 11.325C21.2933 10.7083 21.7183 10.25 22.235 9.95C23.2016 9.4 24.1183 9.125 24.985 9.125C29.6183 9.125 31.935 12.0417 31.935 17.875C31.935 19.6917 31.6266 21.3083 31.01 22.725C30.66 23.525 30.2016 24.2167 29.635 24.8C29.0683 25.3667 28.31 25.8333 27.36 26.2C26.4266 26.5667 25.3516 26.75 24.135 26.75ZM28.71 17.675C28.71 13.7583 27.5433 11.8 25.21 11.8C24.5433 11.8 24.0266 11.9917 23.66 12.375C23.31 12.7583 23.135 13.25 23.135 13.85C23.135 14.4333 23.3183 15.125 23.685 15.925C24.0683 16.725 24.4516 17.3583 24.835 17.825L25.385 18.525C25.385 18.725 25.0766 18.9167 24.46 19.1C23.8433 19.2667 23.3516 19.35 22.985 19.35C22.9016 19.35 22.7266 19.1917 22.46 18.875C22.21 18.5583 21.91 18.075 21.56 17.425C21.2266 16.7583 20.985 16.0583 20.835 15.325C20.585 15.575 20.385 16.0833 20.235 16.85C20.085 17.6167 20.01 18.3583 20.01 19.075C20.01 20.475 20.4016 21.675 21.185 22.675C21.9683 23.6583 22.96 24.15 24.16 24.15C27.1933 24.15 28.71 21.9917 28.71 17.675Z" fill="black"/>
</svg>
