<svg width="40" height="40" viewBox="0 0 40 40" fill="none" xmlns="http://www.w3.org/2000/svg">
<path d="M19.9989 4.68677C19.3517 4.68677 18.827 5.21145 18.827 5.85864C18.827 6.50583 19.3517 7.03052 19.9989 7.03052C23.8766 7.03052 27.0313 10.1847 27.0313 14.0618C27.0313 14.709 27.556 15.2336 28.2032 15.2336C28.8504 15.2336 29.3751 14.709 29.3751 14.0618C29.3751 8.89239 25.169 4.68677 19.9989 4.68677Z" fill="#FF0027"/>
<path d="M16.9792 0.314897C11.6846 1.42123 7.39166 5.6731 6.26205 11.0005C5.30822 15.4991 6.48361 20.0155 9.48681 23.3917C10.9549 25.0419 11.7967 27.2203 11.7967 29.3743V31.718C11.7967 33.2774 12.8176 34.6022 14.2259 35.061C14.689 37.7973 17.064 39.9992 19.9999 39.9992C22.9349 39.9992 25.3106 37.798 25.7738 35.061C27.1821 34.6022 28.203 33.2774 28.203 31.7179V29.3742C28.203 27.216 29.0477 25.0638 30.5813 23.3141C32.8261 20.7532 34.0624 17.4672 34.0624 14.0618C34.0624 5.18951 25.9413 -1.55745 16.9792 0.314897ZM19.9999 37.6555C18.4935 37.6555 17.1727 36.619 16.6849 35.2258H23.3147C22.827 36.619 21.5063 37.6555 19.9999 37.6555ZM25.8592 31.718C25.8592 32.3642 25.3335 32.8899 24.6874 32.8899H15.3124C14.6662 32.8899 14.1405 32.3642 14.1405 31.718V30.5461H25.8592V31.718ZM28.8188 21.7694C27.1844 23.634 26.1788 25.8824 25.9237 28.2024H14.0763C13.8214 25.8811 12.8185 23.6106 11.2381 21.834C8.73517 19.0202 7.75712 15.2487 8.55486 11.4867C9.48603 7.09497 13.0642 3.5274 17.4586 2.60919C24.9605 1.04146 31.7186 6.67521 31.7186 14.0618C31.7186 16.8986 30.6888 19.6359 28.8188 21.7694Z" fill="#FF0027"/>
<path d="M3.51562 14.0618H1.17188C0.524687 14.0618 0 14.5865 0 15.2336C0 15.8808 0.524687 16.4055 1.17188 16.4055H3.51562C4.16281 16.4055 4.6875 15.8808 4.6875 15.2336C4.6875 14.5865 4.16281 14.0618 3.51562 14.0618Z" fill="#FF0027"/>
<path d="M4.00091 8.20241L2.34365 6.54515C1.88607 6.08749 1.14404 6.08749 0.686382 6.54515C0.228726 7.0028 0.228726 7.74476 0.686382 8.20241L2.34365 9.85968C2.80123 10.3173 3.54326 10.3174 4.00091 9.85968C4.45857 9.40202 4.45857 8.66007 4.00091 8.20241Z" fill="#FF0027"/>
<path d="M4.00091 20.6076C3.54326 20.15 2.80123 20.15 2.34365 20.6076L0.686382 22.2649C0.228726 22.7226 0.228726 23.4645 0.686382 23.9222C1.14396 24.3798 1.88599 24.3799 2.34365 23.9222L4.00091 22.2649C4.45857 21.8073 4.45857 21.0653 4.00091 20.6076Z" fill="#FF0027"/>
<path d="M38.8281 14.0618H36.4844C35.8372 14.0618 35.3125 14.5865 35.3125 15.2336C35.3125 15.8808 35.8372 16.4055 36.4844 16.4055H38.8281C39.4753 16.4055 40 15.8808 40 15.2336C40 14.5865 39.4753 14.0618 38.8281 14.0618Z" fill="#FF0027"/>
<path d="M39.3134 6.54515C38.8558 6.08749 38.1138 6.08749 37.6562 6.54515L35.9989 8.20241C35.5412 8.66007 35.5412 9.40202 35.9989 9.85968C36.4565 10.3173 37.1985 10.3173 37.6562 9.85968L39.3134 8.20241C39.7711 7.74475 39.7711 7.0028 39.3134 6.54515Z" fill="#FF0027"/>
<path d="M39.3134 22.2649L37.6562 20.6076C37.1986 20.15 36.4565 20.15 35.9989 20.6076C35.5412 21.0653 35.5412 21.8073 35.9989 22.2649L37.6562 23.9222C38.1137 24.3798 38.8558 24.3798 39.3134 23.9222C39.7711 23.4645 39.7711 22.7226 39.3134 22.2649Z" fill="#FF0027"/>
</svg>
