<svg width="32" height="32" viewBox="0 0 32 32" fill="none" xmlns="http://www.w3.org/2000/svg">
<path d="M10.2977 6.05827C9.17665 6.22623 8.28996 6.67153 7.4814 7.48009C6.64939 8.3121 6.19628 9.24176 6.04394 10.4097C5.98535 10.8667 5.98535 21.132 6.04394 21.589C6.19628 22.7569 6.64939 23.6866 7.4814 24.5186C8.3134 25.3506 9.24306 25.8037 10.411 25.9561C10.868 26.0146 21.1333 26.0146 21.5903 25.9561C22.7582 25.8037 23.6879 25.3506 24.5199 24.5186C25.3519 23.6866 25.805 22.7569 25.9574 21.589C26.0159 21.132 26.0159 10.8667 25.9574 10.4097C25.805 9.24176 25.3519 8.3121 24.5199 7.48009C23.6879 6.64809 22.7582 6.19498 21.5903 6.04264C21.0903 5.97624 10.7391 5.99186 10.2977 6.05827ZM22.0044 7.82383C22.4458 7.97617 22.5434 8.02695 22.9067 8.27694C23.4848 8.67537 23.9418 9.29644 24.1723 9.99564L24.3012 10.3941V15.9993C24.3012 21.3625 24.2973 21.6164 24.2269 21.839C23.9652 22.6866 23.5121 23.3155 22.8442 23.7686C22.5551 23.9639 22.3051 24.0772 21.8989 24.2061L21.6059 24.2999H16.0007H10.3954L9.99694 24.171C8.90323 23.8116 8.13763 23.0108 7.77436 21.839C7.70405 21.6164 7.70014 21.3625 7.70014 15.9993C7.70014 10.6362 7.70405 10.3823 7.77436 10.1597C8.05169 9.2691 8.53605 8.62068 9.25868 8.16757C9.56336 7.97617 10.0868 7.77305 10.411 7.71837C10.5086 7.70274 13.0789 7.69102 16.1178 7.69493L21.645 7.69884L22.0044 7.82383Z" fill="white"/>
<path d="M21.1569 9.37425C20.8795 9.43675 20.7194 9.52269 20.5319 9.7141C20.278 9.97583 20.1998 10.1829 20.1998 10.5891C20.1998 10.8938 20.2155 10.968 20.3053 11.136C20.5202 11.5423 20.8834 11.7806 21.3366 11.8118C21.6686 11.8314 21.8444 11.7845 22.1218 11.597C22.8991 11.0735 22.8093 9.88207 21.9655 9.47972C21.6764 9.34299 21.446 9.31174 21.1569 9.37425Z" fill="white"/>
<path d="M15.3601 11.0428C13.4734 11.3045 11.8641 12.617 11.2782 14.3825C11.079 14.9841 11.0243 15.3317 11.0243 15.9997C11.0243 16.6676 11.079 17.0153 11.2782 17.6207C11.7508 19.0347 12.9695 20.2495 14.3914 20.7261C14.9851 20.9214 15.3367 20.9761 16.0007 20.9761C16.6647 20.9761 17.0163 20.9214 17.61 20.7261C19.0318 20.2495 20.2506 19.0347 20.7232 17.6207C20.9224 17.0153 20.9771 16.6676 20.9771 15.9997C20.9771 15.1247 20.8091 14.4099 20.4302 13.6951C19.7076 12.3396 18.4655 11.4061 16.9577 11.0975C16.5827 11.0194 15.7312 10.9881 15.3601 11.0428ZM17.0046 12.8318C17.4225 12.9685 17.5358 13.0232 17.8561 13.238C18.5123 13.6794 18.9537 14.2927 19.2076 15.1013C19.2857 15.3552 19.3014 15.4763 19.3014 15.9997C19.3014 16.6442 19.2545 16.8825 19.024 17.3942C18.735 18.0504 18.0514 18.734 17.3913 19.0269C16.8835 19.2535 16.6452 19.3003 16.0007 19.3003C15.3562 19.3003 15.1179 19.2535 14.6101 19.0269C13.95 18.734 13.2664 18.0504 12.9774 17.3942C12.7469 16.8825 12.7 16.6442 12.7 15.9997C12.7 15.4763 12.7156 15.3552 12.7938 15.1013C12.9266 14.6794 13.0438 14.4333 13.2664 14.1091C13.7078 13.4685 14.325 13.0271 15.0828 12.8045C15.4695 12.6912 15.5281 12.6834 16.1179 12.699C16.5827 12.7107 16.6882 12.7263 17.0046 12.8318Z" fill="white"/>
</svg>
