<svg width="261" height="66" viewBox="0 0 261 66" fill="none" xmlns="http://www.w3.org/2000/svg">
<path d="M19.959 24.7L34.459 45H6.45898V10.2H34.459L19.959 24.7ZM18.659 26L8.30898 36.35V43.15H30.909L18.659 26ZM41.9707 23.75C41.9707 21.15 42.6207 18.7333 43.9207 16.5C45.2207 14.2667 46.9707 12.5 49.1707 11.2C51.404 9.9 53.8374 9.25 56.4707 9.25C59.104 9.25 61.5207 9.9 63.7207 11.2C65.954 12.5 67.7207 14.2667 69.0207 16.5C70.3207 18.7333 70.9707 21.15 70.9707 23.75V31.45C70.9707 34.05 70.3207 36.4667 69.0207 38.7C67.7207 40.9333 65.954 42.7 63.7207 44C61.5207 45.3 59.104 45.95 56.4707 45.95C53.8374 45.95 51.404 45.3 49.1707 44C46.9707 42.7 45.2207 40.9333 43.9207 38.7C42.6207 36.4667 41.9707 34.05 41.9707 31.45V23.75ZM51.0707 31.45C51.0707 33.05 51.5707 34.4167 52.5707 35.55C53.5707 36.6833 54.8707 37.25 56.4707 37.25C58.0374 37.25 59.3207 36.6833 60.3207 35.55C61.3207 34.4167 61.8207 33.05 61.8207 31.45V23.7C61.8207 22.0667 61.3207 20.7 60.3207 19.6C59.3207 18.5 58.0374 17.95 56.4707 17.95C54.8707 17.95 53.5707 18.5 52.5707 19.6C51.5707 20.7 51.0707 22.0667 51.0707 23.7V31.45ZM107.882 45H81.1324V10.2H94.6824C97.5824 10.2 99.9491 10.7167 101.782 11.75C103.582 12.75 104.982 14.1167 105.982 15.85C106.982 17.5833 107.482 19.5 107.482 21.6C107.482 24.2 106.682 26.5333 105.082 28.6C103.482 30.6333 101.466 31.9833 99.0324 32.65L107.882 45ZM84.2824 12.05L97.8824 31.05C100.116 30.5833 101.966 29.4667 103.432 27.7C104.899 25.9333 105.632 23.9 105.632 21.6C105.632 19.7667 105.182 18.1 104.282 16.6C103.382 15.1 102.116 13.95 100.482 13.15C99.0158 12.4167 97.0991 12.05 94.7324 12.05H84.2824ZM82.9824 13.25V31.2H95.8324L82.9824 13.25ZM82.9824 43.15H104.382L97.0824 33L95.5324 33.05H82.9824V43.15ZM169.956 10.2C172.156 10.2 173.906 10.5333 175.206 11.2C176.773 12 177.973 13.1 178.806 14.5C179.673 15.9 180.106 17.4667 180.106 19.2C180.106 20.8333 179.673 22.35 178.806 23.75C177.939 25.1167 176.756 26.2 175.256 27C177.056 27.6333 178.573 28.7333 179.806 30.3C181.039 31.8667 181.656 33.6333 181.656 35.6C181.656 37.3333 181.206 38.9333 180.306 40.4C179.439 41.8333 178.273 42.9667 176.806 43.8C176.073 44.2 175.256 44.5 174.356 44.7C173.456 44.9 172.256 45 170.756 45H155.356V10.2H169.956ZM205.018 24.7L219.518 45H191.518V10.2H219.518L205.018 24.7ZM203.718 26L193.368 36.35V43.15H215.968L203.718 26ZM227.029 23.75C227.029 21.15 227.679 18.7333 228.979 16.5C230.279 14.2667 232.029 12.5 234.229 11.2C236.463 9.9 238.896 9.25 241.529 9.25C244.163 9.25 246.579 9.9 248.779 11.2C251.013 12.5 252.779 14.2667 254.079 16.5C255.379 18.7333 256.029 21.15 256.029 23.75V31.45C256.029 34.05 255.379 36.4667 254.079 38.7C252.779 40.9333 251.013 42.7 248.779 44C246.579 45.3 244.163 45.95 241.529 45.95C238.896 45.95 236.463 45.3 234.229 44C232.029 42.7 230.279 40.9333 228.979 38.7C227.679 36.4667 227.029 34.05 227.029 31.45V23.75ZM236.129 31.45C236.129 33.05 236.629 34.4167 237.629 35.55C238.629 36.6833 239.929 37.25 241.529 37.25C243.096 37.25 244.379 36.6833 245.379 35.55C246.379 34.4167 246.879 33.05 246.879 31.45V23.7C246.879 22.0667 246.379 20.7 245.379 19.6C244.379 18.5 243.096 17.95 241.529 17.95C239.929 17.95 238.629 18.5 237.629 19.6C236.629 20.7 236.129 22.0667 236.129 23.7V31.45Z" fill="black"/>
<path d="M44.2791 56.672L43.2551 52.864H49.8631L46.8711 64H46.2471L44.5831 57.808L42.9191 64H42.2951L39.3031 52.864H39.9111L42.5991 62.896L44.2791 56.672ZM49.0951 53.456H44.0231L44.8871 56.672L46.5671 62.896L49.0951 53.456ZM62.1869 52.864H70.2989V55.68H65.0989V57.088H69.4189V59.76H65.0989V61.184H70.2989V64H62.1869V52.864ZM88.5746 52.864C89.2786 52.864 89.8386 52.9707 90.2546 53.184C90.756 53.44 91.14 53.792 91.4066 54.24C91.684 54.688 91.8226 55.1893 91.8226 55.744C91.8226 56.2667 91.684 56.752 91.4066 57.2C91.1293 57.6373 90.7506 57.984 90.2706 58.24C90.8466 58.4427 91.332 58.7947 91.7266 59.296C92.1213 59.7973 92.3186 60.3627 92.3186 60.992C92.3186 61.5467 92.1746 62.0587 91.8866 62.528C91.6093 62.9867 91.236 63.3493 90.7666 63.616C90.532 63.744 90.2706 63.84 89.9826 63.904C89.6946 63.968 89.3106 64 88.8306 64H83.9026V52.864H88.5746Z" fill="#FF0027"/>
<path d="M109.474 64.288C107.928 64.288 106.733 63.9253 105.89 63.2C105.058 62.464 104.648 61.3653 104.658 59.904H107.266C107.256 60.512 107.437 60.976 107.81 61.296C108.184 61.616 108.706 61.776 109.378 61.776C109.933 61.776 110.37 61.6853 110.69 61.504C111.01 61.3227 111.17 61.0453 111.17 60.672C111.17 60.3627 111.005 60.1387 110.674 60C110.354 59.8613 110.034 59.7653 109.714 59.712C109.394 59.648 109.197 59.6107 109.122 59.6C108.301 59.44 107.592 59.248 106.994 59.024C106.397 58.7893 105.896 58.4373 105.49 57.968C105.085 57.4987 104.882 56.88 104.882 56.112C104.882 55.344 105.085 54.6933 105.49 54.16C105.896 53.616 106.434 53.2107 107.106 52.944C107.789 52.6773 108.53 52.544 109.33 52.544C110.301 52.544 111.138 52.7253 111.842 53.088C112.557 53.4507 113.117 54 113.522 54.736C113.725 55.088 113.848 55.4293 113.89 55.76C113.933 56.08 113.954 56.3947 113.954 56.704H111.346C111.346 56.128 111.192 55.7067 110.882 55.44C110.573 55.1627 110.093 55.024 109.442 55.024C108.92 55.024 108.514 55.1147 108.226 55.296C107.938 55.4773 107.794 55.7227 107.794 56.032C107.794 56.3733 107.986 56.624 108.37 56.784C108.754 56.944 109.24 57.088 109.826 57.216C110.786 57.408 111.533 57.5947 112.066 57.776C112.61 57.9467 113.08 58.256 113.474 58.704C113.869 59.152 114.066 59.7813 114.066 60.592C114.066 61.36 113.853 62.0213 113.426 62.576C113 63.1307 112.434 63.5573 111.73 63.856C111.037 64.144 110.285 64.288 109.474 64.288ZM130.71 64V55.68H126.502V52.864H135.494V55.68H131.286V64H130.71ZM152.602 64.24C151.791 64.24 151.039 64.0373 150.346 63.632C149.663 63.2267 149.119 62.6827 148.714 62C148.309 61.3067 148.106 60.5547 148.106 59.744V52.864H157.098V59.744C157.098 60.5547 156.895 61.3067 156.49 62C156.085 62.6827 155.535 63.2267 154.842 63.632C154.159 64.0373 153.413 64.24 152.602 64.24ZM170.206 64V52.864H174.35C175.16 52.864 175.907 53.0667 176.59 53.472C177.283 53.8773 177.832 54.4267 178.238 55.12C178.643 55.8027 178.846 56.5493 178.846 57.36V59.504C178.846 60.3147 178.643 61.0667 178.238 61.76C177.832 62.4427 177.283 62.9867 176.59 63.392C175.907 63.7973 175.16 64 174.35 64H170.206ZM192.209 55.68V52.864H199.409V55.68H196.097V61.184H199.409V64H192.209V61.184H195.521V55.68H192.209ZM212.773 57.2C212.773 56.368 212.981 55.5947 213.397 54.88C213.813 54.1653 214.373 53.6 215.077 53.184C215.792 52.768 216.57 52.56 217.413 52.56C218.256 52.56 219.029 52.768 219.733 53.184C220.448 53.6 221.013 54.1653 221.429 54.88C221.845 55.5947 222.053 56.368 222.053 57.2V59.664C222.053 60.496 221.845 61.2693 221.429 61.984C221.013 62.6987 220.448 63.264 219.733 63.68C219.029 64.096 218.256 64.304 217.413 64.304C216.57 64.304 215.792 64.096 215.077 63.68C214.373 63.264 213.813 62.6987 213.397 61.984C212.981 61.2693 212.773 60.496 212.773 59.664V57.2ZM215.685 59.664C215.685 60.176 215.845 60.6133 216.165 60.976C216.485 61.3387 216.901 61.52 217.413 61.52C217.914 61.52 218.325 61.3387 218.645 60.976C218.965 60.6133 219.125 60.176 219.125 59.664V57.184C219.125 56.6613 218.965 56.224 218.645 55.872C218.325 55.52 217.914 55.344 217.413 55.344C216.901 55.344 216.485 55.52 216.165 55.872C215.845 56.224 215.685 56.6613 215.685 57.184V59.664Z" fill="black"/>
<g clip-path="url(#clip0_162_624)">
<path d="M131.499 9.68677C130.852 9.68677 130.327 10.2115 130.327 10.8586C130.327 11.5058 130.852 12.0305 131.499 12.0305C135.377 12.0305 138.531 15.1847 138.531 19.0618C138.531 19.709 139.056 20.2336 139.703 20.2336C140.35 20.2336 140.875 19.709 140.875 19.0618C140.875 13.8924 136.669 9.68677 131.499 9.68677Z" fill="#FF0027"/>
<path d="M128.479 5.3149C123.185 6.42123 118.892 10.6731 117.762 16.0005C116.808 20.4991 117.984 25.0155 120.987 28.3917C122.455 30.0419 123.297 32.2203 123.297 34.3743V36.718C123.297 38.2774 124.318 39.6022 125.726 40.061C126.189 42.7973 128.564 44.9992 131.5 44.9992C134.435 44.9992 136.811 42.798 137.274 40.061C138.682 39.6022 139.703 38.2774 139.703 36.7179V34.3742C139.703 32.216 140.548 30.0638 142.081 28.3141C144.326 25.7532 145.562 22.4672 145.562 19.0618C145.562 10.1895 137.441 3.44255 128.479 5.3149ZM131.5 42.6555C129.994 42.6555 128.673 41.619 128.185 40.2258H134.815C134.327 41.619 133.006 42.6555 131.5 42.6555ZM137.359 36.718C137.359 37.3642 136.834 37.8899 136.187 37.8899H126.812C126.166 37.8899 125.641 37.3642 125.641 36.718V35.5461H137.359V36.718ZM140.319 26.7694C138.684 28.634 137.679 30.8824 137.424 33.2024H125.576C125.321 30.8811 124.319 28.6106 122.738 26.834C120.235 24.0202 119.257 20.2487 120.055 16.4867C120.986 12.095 124.564 8.5274 128.959 7.60919C136.461 6.04146 143.219 11.6752 143.219 19.0618C143.219 21.8986 142.189 24.6359 140.319 26.7694Z" fill="#FF0027"/>
<path d="M115.016 19.0618H112.672C112.025 19.0618 111.5 19.5865 111.5 20.2336C111.5 20.8808 112.025 21.4055 112.672 21.4055H115.016C115.663 21.4055 116.188 20.8808 116.188 20.2336C116.188 19.5865 115.663 19.0618 115.016 19.0618Z" fill="#FF0027"/>
<path d="M115.501 13.2023L113.844 11.545C113.386 11.0874 112.644 11.0874 112.186 11.545C111.729 12.0027 111.729 12.7446 112.186 13.2023L113.844 14.8596C114.301 15.3172 115.043 15.3173 115.501 14.8596C115.959 14.4019 115.959 13.6599 115.501 13.2023Z" fill="#FF0027"/>
<path d="M115.501 25.6075C115.043 25.1499 114.301 25.1499 113.844 25.6075L112.186 27.2648C111.729 27.7224 111.729 28.4644 112.186 28.9221C112.644 29.3797 113.386 29.3798 113.844 28.9221L115.501 27.2648C115.959 26.8071 115.959 26.0652 115.501 25.6075Z" fill="#FF0027"/>
<path d="M150.328 19.0618H147.984C147.337 19.0618 146.812 19.5865 146.812 20.2336C146.812 20.8808 147.337 21.4055 147.984 21.4055H150.328C150.975 21.4055 151.5 20.8808 151.5 20.2336C151.5 19.5865 150.975 19.0618 150.328 19.0618Z" fill="#FF0027"/>
<path d="M150.813 11.545C150.356 11.0874 149.614 11.0874 149.156 11.545L147.499 13.2023C147.041 13.6599 147.041 14.4019 147.499 14.8596C147.956 15.3171 148.698 15.3172 149.156 14.8596L150.813 13.2023C151.271 12.7446 151.271 12.0027 150.813 11.545Z" fill="#FF0027"/>
<path d="M150.813 27.2648L149.156 25.6075C148.699 25.1499 147.957 25.1499 147.499 25.6075C147.041 26.0652 147.041 26.8071 147.499 27.2648L149.156 28.9221C149.614 29.3796 150.356 29.3797 150.813 28.9221C151.271 28.4644 151.271 27.7224 150.813 27.2648Z" fill="#FF0027"/>
</g>
<defs>
<clipPath id="clip0_162_624">
<rect width="40" height="40" fill="white" transform="translate(111.5 5)"/>
</clipPath>
</defs>
</svg>
