<svg width="66" height="260" viewBox="0 0 66 260" fill="none" xmlns="http://www.w3.org/2000/svg">
<path d="M24.7 240.541L45 226.041V254.041H10.2L10.2 226.041L24.7 240.541ZM26 241.841L36.35 252.191H43.15V229.591L26 241.841ZM23.75 218.529C21.15 218.529 18.7333 217.879 16.5 216.579C14.2667 215.279 12.5 213.529 11.2 211.329C9.9 209.096 9.25 206.663 9.25 204.029C9.25 201.396 9.9 198.979 11.2 196.779C12.5 194.546 14.2667 192.779 16.5 191.479C18.7333 190.179 21.15 189.529 23.75 189.529H31.45C34.05 189.529 36.4667 190.179 38.7 191.479C40.9333 192.779 42.7 194.546 44 196.779C45.3 198.979 45.95 201.396 45.95 204.029C45.95 206.663 45.3 209.096 44 211.329C42.7 213.529 40.9333 215.279 38.7 216.579C36.4667 217.879 34.05 218.529 31.45 218.529H23.75ZM31.45 209.429C33.05 209.429 34.4167 208.929 35.55 207.929C36.6833 206.929 37.25 205.629 37.25 204.029C37.25 202.463 36.6833 201.179 35.55 200.179C34.4167 199.179 33.05 198.679 31.45 198.679H23.7C22.0667 198.679 20.7 199.179 19.6 200.179C18.5 201.179 17.95 202.463 17.95 204.029C17.95 205.629 18.5 206.929 19.6 207.929C20.7 208.929 22.0667 209.429 23.7 209.429H31.45ZM45 152.618V179.368H10.2V165.818C10.2 162.918 10.7167 160.551 11.75 158.718C12.75 156.918 14.1167 155.518 15.85 154.518C17.5833 153.518 19.5 153.018 21.6 153.018C24.2 153.018 26.5333 153.818 28.6 155.418C30.6333 157.018 31.9833 159.034 32.65 161.468L45 152.618ZM12.05 176.218L31.05 162.618C30.5833 160.384 29.4667 158.534 27.7 157.068C25.9333 155.601 23.9 154.868 21.6 154.868C19.7667 154.868 18.1 155.318 16.6 156.218C15.1 157.118 13.95 158.384 13.15 160.018C12.4167 161.484 12.05 163.401 12.05 165.768V176.218ZM13.25 177.518H31.2L31.2 164.668L13.25 177.518ZM43.15 177.518V156.118L33 163.418L33.05 164.968V177.518H43.15ZM10.2 90.5441C10.2 88.3441 10.5333 86.5941 11.2 85.2941C12 83.7275 13.1 82.5275 14.5 81.6941C15.9 80.8275 17.4667 80.3941 19.2 80.3941C20.8333 80.3941 22.35 80.8275 23.75 81.6941C25.1167 82.5608 26.2 83.7441 27 85.2441C27.6333 83.4441 28.7333 81.9275 30.3 80.6941C31.8667 79.4608 33.6333 78.8441 35.6 78.8441C37.3333 78.8441 38.9333 79.2941 40.4 80.1941C41.8333 81.0608 42.9667 82.2275 43.8 83.6941C44.2 84.4275 44.5 85.2441 44.7 86.1441C44.9 87.0441 45 88.2441 45 89.7441V105.144H10.2L10.2 90.5441ZM24.7 55.4824L45 40.9824V68.9824H10.2L10.2 40.9824L24.7 55.4824ZM26 56.7824L36.35 67.1324H43.15V44.5324L26 56.7824ZM23.75 33.4707C21.15 33.4707 18.7333 32.8207 16.5 31.5207C14.2667 30.2207 12.5 28.4707 11.2 26.2707C9.9 24.0374 9.25 21.604 9.25 18.9707C9.25 16.3374 9.9 13.9207 11.2 11.7207C12.5 9.48737 14.2667 7.7207 16.5 6.4207C18.7333 5.1207 21.15 4.4707 23.75 4.4707H31.45C34.05 4.4707 36.4667 5.1207 38.7 6.4207C40.9333 7.7207 42.7 9.48737 44 11.7207C45.3 13.9207 45.95 16.3374 45.95 18.9707C45.95 21.604 45.3 24.0374 44 26.2707C42.7 28.4707 40.9333 30.2207 38.7 31.5207C36.4667 32.8207 34.05 33.4707 31.45 33.4707H23.75ZM31.45 24.3707C33.05 24.3707 34.4167 23.8707 35.55 22.8707C36.6833 21.8707 37.25 20.5707 37.25 18.9707C37.25 17.404 36.6833 16.1207 35.55 15.1207C34.4167 14.1207 33.05 13.6207 31.45 13.6207H23.7C22.0667 13.6207 20.7 14.1207 19.6 15.1207C18.5 16.1207 17.95 17.404 17.95 18.9707C17.95 20.5707 18.5 21.8707 19.6 22.8707C20.7 23.8707 22.0667 24.3707 23.7 24.3707H31.45Z" fill="black"/>
<path d="M56.672 216.221L52.864 217.245V210.637L64 213.629V214.253L57.808 215.917L64 217.581V218.205L52.864 221.197V220.589L62.896 217.901L56.672 216.221ZM53.456 211.405V216.477L56.672 215.613L62.896 213.933L53.456 211.405ZM52.864 198.313V190.201H55.68V195.401H57.088V191.081H59.76V195.401H61.184V190.201H64V198.313H52.864ZM52.864 171.925C52.864 171.221 52.9707 170.661 53.184 170.245C53.44 169.744 53.792 169.36 54.24 169.093C54.688 168.816 55.1893 168.677 55.744 168.677C56.2667 168.677 56.752 168.816 57.2 169.093C57.6373 169.371 57.984 169.749 58.24 170.229C58.4427 169.653 58.7947 169.168 59.296 168.773C59.7973 168.379 60.3627 168.181 60.992 168.181C61.5467 168.181 62.0587 168.325 62.528 168.613C62.9867 168.891 63.3493 169.264 63.616 169.733C63.744 169.968 63.84 170.229 63.904 170.517C63.968 170.805 64 171.189 64 171.669V176.597H52.864V171.925Z" fill="#FF0027"/>
<path d="M64.288 151.026C64.288 152.572 63.9253 153.767 63.2 154.61C62.464 155.442 61.3653 155.852 59.904 155.842V153.234C60.512 153.244 60.976 153.063 61.296 152.69C61.616 152.316 61.776 151.794 61.776 151.122C61.776 150.567 61.6853 150.13 61.504 149.81C61.3227 149.49 61.0453 149.33 60.672 149.33C60.3627 149.33 60.1387 149.495 60 149.826C59.8613 150.146 59.7653 150.466 59.712 150.786C59.648 151.106 59.6107 151.303 59.6 151.378C59.44 152.199 59.248 152.908 59.024 153.506C58.7893 154.103 58.4373 154.604 57.968 155.01C57.4987 155.415 56.88 155.618 56.112 155.618C55.344 155.618 54.6933 155.415 54.16 155.01C53.616 154.604 53.2107 154.066 52.944 153.394C52.6773 152.711 52.544 151.97 52.544 151.17C52.544 150.199 52.7253 149.362 53.088 148.658C53.4507 147.943 54 147.383 54.736 146.978C55.088 146.775 55.4293 146.652 55.76 146.61C56.08 146.567 56.3947 146.546 56.704 146.546V149.154C56.128 149.154 55.7067 149.308 55.44 149.618C55.1627 149.927 55.024 150.407 55.024 151.058C55.024 151.58 55.1147 151.986 55.296 152.274C55.4773 152.562 55.7227 152.706 56.032 152.706C56.3733 152.706 56.624 152.514 56.784 152.13C56.944 151.746 57.088 151.26 57.216 150.674C57.408 149.714 57.5947 148.967 57.776 148.434C57.9467 147.89 58.256 147.42 58.704 147.026C59.152 146.631 59.7813 146.434 60.592 146.434C61.36 146.434 62.0213 146.647 62.576 147.074C63.1307 147.5 63.5573 148.066 63.856 148.77C64.144 149.463 64.288 150.215 64.288 151.026ZM64 129.79H55.68V133.998H52.864V125.006H55.68V129.214H64V129.79ZM64.24 107.898C64.24 108.709 64.0373 109.461 63.632 110.154C63.2267 110.837 62.6827 111.381 62 111.786C61.3067 112.191 60.5547 112.394 59.744 112.394H52.864V103.402H59.744C60.5547 103.402 61.3067 103.605 62 104.01C62.6827 104.415 63.2267 104.965 63.632 105.658C64.0373 106.341 64.24 107.087 64.24 107.898ZM64 90.2944H52.864V86.1504C52.864 85.3397 53.0667 84.5931 53.472 83.9104C53.8773 83.2171 54.4267 82.6677 55.12 82.2624C55.8027 81.8571 56.5493 81.6544 57.36 81.6544H59.504C60.3147 81.6544 61.0667 81.8571 61.76 82.2624C62.4427 82.6677 62.9867 83.2171 63.392 83.9104C63.7973 84.5931 64 85.3397 64 86.1504V90.2944ZM55.68 68.2906H52.864V61.0906H55.68V64.4026H61.184L61.184 61.0906H64V68.2906H61.184V64.9786H55.68V68.2906ZM57.2 47.7269C56.368 47.7269 55.5947 47.5189 54.88 47.1029C54.1653 46.6869 53.6 46.1269 53.184 45.4229C52.768 44.7082 52.56 43.9295 52.56 43.0869C52.56 42.2442 52.768 41.4709 53.184 40.7669C53.6 40.0522 54.1653 39.4869 54.88 39.0709C55.5947 38.6549 56.368 38.4469 57.2 38.4469H59.664C60.496 38.4469 61.2693 38.6549 61.984 39.0709C62.6987 39.4869 63.264 40.0522 63.68 40.7669C64.096 41.4709 64.304 42.2442 64.304 43.0869C64.304 43.9295 64.096 44.7082 63.68 45.4229C63.264 46.1269 62.6987 46.6869 61.984 47.1029C61.2693 47.5189 60.496 47.7269 59.664 47.7269H57.2ZM59.664 44.8149C60.176 44.8149 60.6133 44.6549 60.976 44.3349C61.3387 44.0149 61.52 43.5989 61.52 43.0869C61.52 42.5855 61.3387 42.1749 60.976 41.8549C60.6133 41.5349 60.176 41.3749 59.664 41.3749H57.184C56.6613 41.3749 56.224 41.5349 55.872 41.8549C55.52 42.1749 55.344 42.5855 55.344 43.0869C55.344 43.5989 55.52 44.0149 55.872 44.3349C56.224 44.6549 56.6613 44.8149 57.184 44.8149H59.664Z" fill="black"/>
<g clip-path="url(#clip0_363_149)">
<path d="M9.68652 129.001C9.68652 129.648 10.2112 130.173 10.8584 130.173C11.5056 130.173 12.0303 129.648 12.0303 129.001C12.0303 125.123 15.1845 121.969 19.0615 121.969C19.7087 121.969 20.2334 121.444 20.2334 120.797C20.2334 120.15 19.7087 119.625 19.0615 119.625C13.8921 119.625 9.68652 123.831 9.68652 129.001Z" fill="#FF0027"/>
<path d="M5.3149 132.021C6.42123 137.315 10.6731 141.608 16.0005 142.738C20.4991 143.692 25.0155 142.516 28.3917 139.513C30.0419 138.045 32.2203 137.203 34.3743 137.203H36.718C38.2774 137.203 39.6022 136.182 40.061 134.774C42.7973 134.311 44.9992 131.936 44.9992 129C44.9992 126.065 42.798 123.689 40.061 123.226C39.6022 121.818 38.2774 120.797 36.7179 120.797H34.3742C32.216 120.797 30.0638 119.952 28.3141 118.419C25.7532 116.174 22.4672 114.938 19.0618 114.938C10.1895 114.938 3.44255 123.059 5.3149 132.021ZM42.6555 129C42.6555 130.506 41.619 131.827 40.2258 132.315V125.685C41.619 126.173 42.6555 127.494 42.6555 129ZM36.718 123.141C37.3642 123.141 37.8899 123.666 37.8899 124.313V133.688C37.8899 134.334 37.3642 134.859 36.718 134.859H35.5461V123.141H36.718ZM26.7694 120.181C28.634 121.815 30.8824 122.821 33.2024 123.076V134.924C30.8811 135.178 28.6106 136.181 26.834 137.762C24.0202 140.265 20.2487 141.243 16.4867 140.445C12.095 139.514 8.5274 135.936 7.60919 131.541C6.04146 124.039 11.6752 117.281 19.0618 117.281C21.8986 117.281 24.6359 118.311 26.7694 120.181Z" fill="#FF0027"/>
<path d="M19.0615 145.484V147.828C19.0615 148.475 19.5862 149 20.2334 149C20.8806 149 21.4053 148.475 21.4053 147.828V145.484C21.4053 144.837 20.8806 144.312 20.2334 144.312C19.5862 144.312 19.0615 144.837 19.0615 145.484Z" fill="#FF0027"/>
<path d="M13.2022 144.999L11.5449 146.656C11.0872 147.114 11.0872 147.856 11.5449 148.313C12.0026 148.771 12.7445 148.771 13.2022 148.313L14.8594 146.656C15.3171 146.199 15.3172 145.457 14.8594 144.999C14.4018 144.541 13.6598 144.541 13.2022 144.999Z" fill="#FF0027"/>
<path d="M25.3432 145.343C24.8856 145.801 24.8856 146.543 25.3432 147L27.0005 148.658C27.4582 149.115 28.2001 149.115 28.6578 148.658C29.1154 148.2 29.1155 147.458 28.6578 147L27.0005 145.343C26.5428 144.886 25.8009 144.886 25.3432 145.343Z" fill="#FF0027"/>
<path d="M19.0615 110.172V112.516C19.0615 113.163 19.5862 113.688 20.2334 113.688C20.8806 113.688 21.4053 113.163 21.4053 112.516V110.172C21.4053 109.525 20.8806 109 20.2334 109C19.5862 109 19.0615 109.525 19.0615 110.172Z" fill="#FF0027"/>
<path d="M11.5449 109.687C11.0872 110.144 11.0872 110.886 11.5449 111.344L13.2022 113.001C13.6598 113.459 14.4018 113.459 14.8594 113.001C15.317 112.544 15.3171 111.802 14.8594 111.344L13.2022 109.687C12.7445 109.229 12.0026 109.229 11.5449 109.687Z" fill="#FF0027"/>
<path d="M27.2647 109.687L25.6074 111.344C25.1497 111.801 25.1497 112.543 25.6074 113.001C26.0651 113.459 26.807 113.459 27.2647 113.001L28.9219 111.344C29.3795 110.886 29.3796 110.144 28.9219 109.687C28.4643 109.229 27.7223 109.229 27.2647 109.687Z" fill="#FF0027"/>
</g>
<defs>
<clipPath id="clip0_363_149">
<rect width="40" height="40" fill="white" transform="translate(5 149) rotate(-90)"/>
</clipPath>
</defs>
</svg>
