<svg width="20" height="30" viewBox="0 0 20 30" fill="none" xmlns="http://www.w3.org/2000/svg">
<path d="M9.99994 0C7.34736 0.00186053 4.80354 1.0112 2.92822 2.80705C1.05339 4.60245 0 7.03692 0 9.57522V20.4314C0 23.8497 1.90594 27.0089 5.00003 28.7183C8.09401 30.4272 11.906 30.4272 15 28.7183C18.0939 27.009 20 23.8497 20 20.4314V9.57522C19.9981 7.03752 18.9442 4.60388 17.0693 2.80896C15.195 1.01356 12.6521 0.0036913 9.99994 0V0ZM11.345 11.1422C11.345 11.8534 10.7428 12.4293 9.99994 12.4293C9.25713 12.4293 8.65486 11.8535 8.65486 11.1422V5.66804C8.65486 4.95732 9.25713 4.38097 9.99994 4.38097C10.7428 4.38097 11.345 4.95727 11.345 5.66804V11.1422Z" fill="black"/>
</svg>
