<svg width="36" height="16" viewBox="0 0 36 16" fill="none" xmlns="http://www.w3.org/2000/svg">
<path d="M20.1164 10.84C18.6897 10.84 17.5831 10.4 16.7964 9.52C16.0097 8.64 15.6164 7.44667 15.6164 5.94C15.6164 4.86 15.8431 3.94 16.2964 3.18C16.7497 2.42 17.3497 1.85333 18.0964 1.48C18.8564 1.09333 19.6764 0.899999 20.5564 0.899999C21.9431 0.899999 23.0364 1.33333 23.8364 2.2C24.6364 3.05333 25.0364 4.22 25.0364 5.7C25.0364 6.78 24.8097 7.70667 24.3564 8.48C23.9031 9.25333 23.3031 9.84 22.5564 10.24C21.8097 10.64 20.9964 10.84 20.1164 10.84ZM2.29641 2.64L0.516406 2.36V1.14H5.01641L10.6364 10.28L11.7364 12.82L11.7164 2.64L9.85641 2.36V1.14H15.1364V2.36L13.4164 2.64V16H10.9764L5.09641 6.48L3.99641 4.08V14.58L5.97641 14.82V16H0.516406V14.82L2.29641 14.58V2.64ZM20.3964 9.72C21.0364 9.72 21.5097 9.41333 21.8164 8.8C22.1364 8.18667 22.2964 7.22 22.2964 5.9C22.2964 4.58 22.1297 3.6 21.7964 2.96C21.4631 2.32 20.9631 2 20.2964 2C19.0031 2 18.3564 3.23333 18.3564 5.7C18.3564 8.38 19.0364 9.72 20.3964 9.72ZM24.7564 14.26H15.8364V12.72H24.7564V14.26ZM30.0834 6.2C29.8568 6.28 29.4501 6.38667 28.8634 6.52C28.2768 6.64 27.8168 6.72 27.4834 6.76L27.2634 5.36C27.9834 5.21333 28.7301 4.95333 29.5034 4.58C30.2901 4.19333 30.9301 3.79333 31.4234 3.38H31.4434L33.0234 3.6V14.6L35.3034 14.82V16H27.6834V14.82L30.0834 14.62V6.2Z" fill="#FF0027"/>
</svg>
