<svg width="32" height="32" viewBox="0 0 32 32" fill="none" xmlns="http://www.w3.org/2000/svg">
<path d="M25.1554 7.27506C25.0444 7.30792 23.4997 7.8872 21.7249 8.56508C19.9501 9.24296 15.9198 10.7795 12.7687 11.9832C9.61758 13.187 6.91839 14.2264 6.7746 14.2962C6.49112 14.4318 6.19943 14.6906 6.09261 14.896C5.9899 15.1015 5.96936 15.3932 6.04742 15.6314C6.1337 15.8862 6.44593 16.1943 6.77049 16.3463C6.89374 16.4038 7.8592 16.6996 8.91505 16.9995L10.8336 17.55L11.8648 20.508C12.5468 22.4595 12.9494 23.5441 13.0398 23.7002C13.2165 23.9878 13.4959 24.2425 13.7958 24.3863C13.993 24.4808 14.0751 24.4931 14.4326 24.4931C14.7777 24.4931 14.8804 24.4767 15.057 24.3945C15.398 24.2425 15.5582 24.1111 16.7949 22.9731C17.4358 22.3856 17.9698 21.9049 17.9904 21.9049C18.0068 21.9049 18.7669 22.5047 19.6789 23.2401C20.5869 23.9714 21.425 24.6328 21.5318 24.7068C21.9796 25.0108 22.6493 25.0889 23.0889 24.8917C23.4586 24.7314 23.8119 24.3247 23.9639 23.8974C24.0009 23.7947 24.6993 20.4218 25.5169 16.3997C26.8644 9.75239 27 9.04986 27 8.69654C26.9959 8.03099 26.7699 7.62837 26.2605 7.37777C25.94 7.22165 25.4963 7.18056 25.1554 7.27506ZM25.7428 8.49934C25.7716 8.5281 25.7921 8.60616 25.7921 8.676C25.7921 8.88964 22.8341 23.4168 22.7602 23.5647C22.5712 23.9508 22.4726 23.9015 21.0347 22.7471C17.103 19.5878 16.1581 18.8154 16.1581 18.7743C16.1581 18.7497 17.5919 17.209 19.342 15.348C21.0922 13.491 22.5589 11.9175 22.6 11.8559C22.6986 11.7039 22.6986 11.4039 22.6 11.2314C22.5178 11.0876 22.222 10.9151 22.0618 10.9151C21.9549 10.9151 21.4825 11.1533 15.2419 14.3414L11.2486 16.3833L9.39983 15.8574C8.38507 15.5698 7.55108 15.3233 7.55108 15.311C7.55108 15.2987 8.73839 14.8385 10.1927 14.288C11.643 13.7334 13.6725 12.961 14.6996 12.5666C15.7267 12.1763 17.1441 11.634 17.8425 11.367C19.3256 10.8 25.332 8.51167 25.4224 8.4788C25.5333 8.43772 25.6935 8.45004 25.7428 8.49934ZM18.9846 13.9224C18.1629 14.7851 14.7243 18.458 14.6832 18.5278C14.6503 18.5771 14.4367 19.3865 14.2025 20.3232C13.9724 21.2599 13.7752 22.0487 13.7588 22.0774C13.7465 22.1021 13.3603 21.0504 12.9001 19.7398C12.4441 18.4251 12.0744 17.3487 12.0785 17.3446C12.099 17.3282 16.0307 15.3233 17.5138 14.5715C18.3273 14.1565 19.0093 13.8032 19.0339 13.7868C19.0545 13.7662 19.0914 13.7498 19.112 13.7498C19.1366 13.7498 19.0791 13.8279 18.9846 13.9224ZM16.3142 20.5245C16.6922 20.8285 17.0003 21.0873 16.9962 21.0997C16.9921 21.1366 14.8187 23.1251 14.8023 23.1086C14.7941 23.1004 14.9543 22.4308 15.1556 21.6173C15.3528 20.8039 15.5295 20.0972 15.5418 20.0438C15.5541 19.9904 15.5788 19.9534 15.5952 19.9616C15.6117 19.9699 15.9362 20.2205 16.3142 20.5245Z" fill="white"/>
</svg>
