<svg width="32" height="32" viewBox="0 0 32 32" fill="none" xmlns="http://www.w3.org/2000/svg">
<path d="M4.13644 8.07766C3.7875 8.1714 3.56356 8.30681 3.35524 8.54638C2.83965 9.12967 2.88132 9.93169 3.50627 11.8014C4.40725 14.4939 5.99568 17.4103 7.75077 19.6081C9.99019 22.4152 12.3546 24.0088 15.0419 24.5348C15.6981 24.665 17.2397 24.665 17.7449 24.54C18.5885 24.3265 19.0521 23.9463 19.2083 23.3318C19.2291 23.2433 19.2447 22.5818 19.2395 21.8631C19.2343 21.1392 19.2447 20.4674 19.2656 20.3633L19.2968 20.181L19.5937 20.3372C20.2291 20.6757 21.0988 21.4726 22.3956 22.8943C23.3643 23.9568 23.6559 24.2224 24.1298 24.4463L24.5204 24.6338H26.4213C28.6712 24.6338 28.7024 24.6286 29.192 24.139C29.4263 23.8995 29.5044 23.7797 29.5774 23.5401C29.9107 22.3892 29.0826 21.0143 26.2078 17.9572C25.6401 17.353 25.1714 16.8375 25.1714 16.8218C25.1714 16.801 25.4006 16.4573 25.687 16.0511C26.7703 14.4991 27.9212 12.5982 28.5045 11.4055C29.0201 10.3535 29.0982 10.0983 29.1034 9.50464C29.1034 8.92656 29.0097 8.69741 28.6555 8.39013C28.2389 8.03599 28.1347 8.02037 26.0307 8.02037C24.1923 8.02037 24.1507 8.02037 23.859 8.14015C23.6871 8.20786 23.432 8.37451 23.2705 8.52554C22.9737 8.79115 22.9424 8.84844 22.3591 10.1192C21.5883 11.7857 20.5832 13.4419 19.7239 14.4626C19.1666 15.1188 19.2135 15.3063 19.25 12.4419C19.2864 9.23383 19.25 8.90052 18.7708 8.41097C18.3646 7.98912 18.3594 7.98912 15.4481 8.00475L12.9535 8.02037L12.6463 8.17661C12.1046 8.45263 11.7817 9.03592 11.8599 9.59838C11.9015 9.90565 12.089 10.3119 12.3494 10.6608C12.464 10.8118 12.6046 11.0306 12.6619 11.1452C12.891 11.6087 12.9014 11.7232 12.9067 13.947V16.0771L12.7035 15.8479C12.4431 15.5563 11.7297 14.4678 11.3443 13.7752C10.7141 12.6503 10.0891 11.2441 9.54751 9.74942C9.19858 8.78594 8.91735 8.41097 8.31844 8.14015C8.06845 8.02558 8.01637 8.02037 6.24046 8.00995C4.76139 7.99954 4.36559 8.00995 4.13644 8.07766ZM7.73514 9.74942C7.78201 9.8015 7.89138 10.0411 7.97471 10.2858C8.76632 12.5148 9.87041 14.7491 10.9537 16.2854C11.3755 16.8895 12.188 17.7072 12.5629 17.9103C13.1618 18.2332 13.8962 18.1238 14.2347 17.6603C14.568 17.2124 14.5732 17.1447 14.5732 14.296C14.5732 11.968 14.5628 11.6764 14.4743 11.3014C14.3753 10.8535 14.0993 10.2129 13.9066 9.95253C13.8389 9.86399 13.766 9.75983 13.7451 9.72338C13.7139 9.6765 14.1097 9.66088 15.6356 9.66088H17.5678V12.2753C17.573 13.7179 17.5938 15.1292 17.6147 15.4157C17.6667 16.0302 17.8074 16.4104 18.073 16.6448C18.3125 16.8531 18.4688 16.9104 18.8229 16.9052C19.5937 16.9052 20.5051 16.2281 21.4477 14.9626C22.3279 13.7804 23.182 12.3065 23.9319 10.6921C24.1559 10.1973 24.385 9.75983 24.4319 9.72338C24.4944 9.6765 24.885 9.66088 25.963 9.66088C27.0879 9.66088 27.4108 9.6765 27.4108 9.72338C27.4108 9.75983 27.3275 9.98898 27.2286 10.2285C26.8848 11.0618 25.7547 12.9627 24.5256 14.7647C23.6663 16.025 23.484 16.3896 23.484 16.8427C23.4892 17.4624 23.6142 17.6499 25.0152 19.1133C25.6401 19.7643 26.5203 20.7591 26.9525 21.3059C27.4265 21.8996 27.9837 22.8006 27.9837 22.9724C27.9837 22.9829 27.3015 22.9933 26.463 22.9933H24.9475L24.7235 22.8631C24.6037 22.7902 24.1715 22.3683 23.7601 21.9152C21.9425 19.8997 20.7446 18.8998 19.7916 18.6082C19.276 18.4519 18.625 18.4884 18.2813 18.6915C17.9844 18.8634 17.8126 19.1081 17.6928 19.53C17.6199 19.7852 17.599 20.1185 17.5886 21.3476C17.573 22.6912 17.5626 22.8631 17.4845 22.9047C17.4376 22.9308 17.1147 22.9672 16.7658 22.9777C14.9013 23.061 13.0212 22.3371 11.2557 20.8632C9.55793 19.4414 7.9018 17.2645 6.5321 14.6553C5.73008 13.119 4.87076 10.9264 4.73015 10.0515C4.70931 9.9369 4.68327 9.8015 4.66765 9.74942C4.64682 9.66609 4.74056 9.66088 6.15192 9.66088C7.52162 9.66088 7.66223 9.6713 7.73514 9.74942Z" fill="white"/>
</svg>
