 <svg display="none" 
    xmlns="http://www.w3.org/2000/svg">
    <symbol id="logo" viewBox="0 0 261 66">
<path d="M19.959 24.7L34.459 45H6.45898V10.2H34.459L19.959 24.7ZM18.659 26L8.30898 36.35V43.15H30.909L18.659 26ZM41.9707 23.75C41.9707 21.15 42.6207 18.7333 43.9207 16.5C45.2207 14.2667 46.9707 12.5 49.1707 11.2C51.404 9.9 53.8374 9.25 56.4707 9.25C59.104 9.25 61.5207 9.9 63.7207 11.2C65.954 12.5 67.7207 14.2667 69.0207 16.5C70.3207 18.7333 70.9707 21.15 70.9707 23.75V31.45C70.9707 34.05 70.3207 36.4667 69.0207 38.7C67.7207 40.9333 65.954 42.7 63.7207 44C61.5207 45.3 59.104 45.95 56.4707 45.95C53.8374 45.95 51.404 45.3 49.1707 44C46.9707 42.7 45.2207 40.9333 43.9207 38.7C42.6207 36.4667 41.9707 34.05 41.9707 31.45V23.75ZM51.0707 31.45C51.0707 33.05 51.5707 34.4167 52.5707 35.55C53.5707 36.6833 54.8707 37.25 56.4707 37.25C58.0374 37.25 59.3207 36.6833 60.3207 35.55C61.3207 34.4167 61.8207 33.05 61.8207 31.45V23.7C61.8207 22.0667 61.3207 20.7 60.3207 19.6C59.3207 18.5 58.0374 17.95 56.4707 17.95C54.8707 17.95 53.5707 18.5 52.5707 19.6C51.5707 20.7 51.0707 22.0667 51.0707 23.7V31.45ZM107.882 45H81.1324V10.2H94.6824C97.5824 10.2 99.9491 10.7167 101.782 11.75C103.582 12.75 104.982 14.1167 105.982 15.85C106.982 17.5833 107.482 19.5 107.482 21.6C107.482 24.2 106.682 26.5333 105.082 28.6C103.482 30.6333 101.466 31.9833 99.0324 32.65L107.882 45ZM84.2824 12.05L97.8824 31.05C100.116 30.5833 101.966 29.4667 103.432 27.7C104.899 25.9333 105.632 23.9 105.632 21.6C105.632 19.7667 105.182 18.1 104.282 16.6C103.382 15.1 102.116 13.95 100.482 13.15C99.0158 12.4167 97.0991 12.05 94.7324 12.05H84.2824ZM82.9824 13.25V31.2H95.8324L82.9824 13.25ZM82.9824 43.15H104.382L97.0824 33L95.5324 33.05H82.9824V43.15ZM169.956 10.2C172.156 10.2 173.906 10.5333 175.206 11.2C176.773 12 177.973 13.1 178.806 14.5C179.673 15.9 180.106 17.4667 180.106 19.2C180.106 20.8333 179.673 22.35 178.806 23.75C177.939 25.1167 176.756 26.2 175.256 27C177.056 27.6333 178.573 28.7333 179.806 30.3C181.039 31.8667 181.656 33.6333 181.656 35.6C181.656 37.3333 181.206 38.9333 180.306 40.4C179.439 41.8333 178.273 42.9667 176.806 43.8C176.073 44.2 175.256 44.5 174.356 44.7C173.456 44.9 172.256 45 170.756 45H155.356V10.2H169.956ZM205.018 24.7L219.518 45H191.518V10.2H219.518L205.018 24.7ZM203.718 26L193.368 36.35V43.15H215.968L203.718 26ZM227.029 23.75C227.029 21.15 227.679 18.7333 228.979 16.5C230.279 14.2667 232.029 12.5 234.229 11.2C236.463 9.9 238.896 9.25 241.529 9.25C244.163 9.25 246.579 9.9 248.779 11.2C251.013 12.5 252.779 14.2667 254.079 16.5C255.379 18.7333 256.029 21.15 256.029 23.75V31.45C256.029 34.05 255.379 36.4667 254.079 38.7C252.779 40.9333 251.013 42.7 248.779 44C246.579 45.3 244.163 45.95 241.529 45.95C238.896 45.95 236.463 45.3 234.229 44C232.029 42.7 230.279 40.9333 228.979 38.7C227.679 36.4667 227.029 34.05 227.029 31.45V23.75ZM236.129 31.45C236.129 33.05 236.629 34.4167 237.629 35.55C238.629 36.6833 239.929 37.25 241.529 37.25C243.096 37.25 244.379 36.6833 245.379 35.55C246.379 34.4167 246.879 33.05 246.879 31.45V23.7C246.879 22.0667 246.379 20.7 245.379 19.6C244.379 18.5 243.096 17.95 241.529 17.95C239.929 17.95 238.629 18.5 237.629 19.6C236.629 20.7 236.129 22.0667 236.129 23.7V31.45Z" fill="black"/>
<path d="M44.2791 56.672L43.2551 52.864H49.8631L46.8711 64H46.2471L44.5831 57.808L42.9191 64H42.2951L39.3031 52.864H39.9111L42.5991 62.896L44.2791 56.672ZM49.0951 53.456H44.0231L44.8871 56.672L46.5671 62.896L49.0951 53.456ZM62.1869 52.864H70.2989V55.68H65.0989V57.088H69.4189V59.76H65.0989V61.184H70.2989V64H62.1869V52.864ZM88.5746 52.864C89.2786 52.864 89.8386 52.9707 90.2546 53.184C90.756 53.44 91.14 53.792 91.4066 54.24C91.684 54.688 91.8226 55.1893 91.8226 55.744C91.8226 56.2667 91.684 56.752 91.4066 57.2C91.1293 57.6373 90.7506 57.984 90.2706 58.24C90.8466 58.4427 91.332 58.7947 91.7266 59.296C92.1213 59.7973 92.3186 60.3627 92.3186 60.992C92.3186 61.5467 92.1746 62.0587 91.8866 62.528C91.6093 62.9867 91.236 63.3493 90.7666 63.616C90.532 63.744 90.2706 63.84 89.9826 63.904C89.6946 63.968 89.3106 64 88.8306 64H83.9026V52.864H88.5746Z" fill="#FF0027"/>
<path d="M109.474 64.288C107.928 64.288 106.733 63.9253 105.89 63.2C105.058 62.464 104.648 61.3653 104.658 59.904H107.266C107.256 60.512 107.437 60.976 107.81 61.296C108.184 61.616 108.706 61.776 109.378 61.776C109.933 61.776 110.37 61.6853 110.69 61.504C111.01 61.3227 111.17 61.0453 111.17 60.672C111.17 60.3627 111.005 60.1387 110.674 60C110.354 59.8613 110.034 59.7653 109.714 59.712C109.394 59.648 109.197 59.6107 109.122 59.6C108.301 59.44 107.592 59.248 106.994 59.024C106.397 58.7893 105.896 58.4373 105.49 57.968C105.085 57.4987 104.882 56.88 104.882 56.112C104.882 55.344 105.085 54.6933 105.49 54.16C105.896 53.616 106.434 53.2107 107.106 52.944C107.789 52.6773 108.53 52.544 109.33 52.544C110.301 52.544 111.138 52.7253 111.842 53.088C112.557 53.4507 113.117 54 113.522 54.736C113.725 55.088 113.848 55.4293 113.89 55.76C113.933 56.08 113.954 56.3947 113.954 56.704H111.346C111.346 56.128 111.192 55.7067 110.882 55.44C110.573 55.1627 110.093 55.024 109.442 55.024C108.92 55.024 108.514 55.1147 108.226 55.296C107.938 55.4773 107.794 55.7227 107.794 56.032C107.794 56.3733 107.986 56.624 108.37 56.784C108.754 56.944 109.24 57.088 109.826 57.216C110.786 57.408 111.533 57.5947 112.066 57.776C112.61 57.9467 113.08 58.256 113.474 58.704C113.869 59.152 114.066 59.7813 114.066 60.592C114.066 61.36 113.853 62.0213 113.426 62.576C113 63.1307 112.434 63.5573 111.73 63.856C111.037 64.144 110.285 64.288 109.474 64.288ZM130.71 64V55.68H126.502V52.864H135.494V55.68H131.286V64H130.71ZM152.602 64.24C151.791 64.24 151.039 64.0373 150.346 63.632C149.663 63.2267 149.119 62.6827 148.714 62C148.309 61.3067 148.106 60.5547 148.106 59.744V52.864H157.098V59.744C157.098 60.5547 156.895 61.3067 156.49 62C156.085 62.6827 155.535 63.2267 154.842 63.632C154.159 64.0373 153.413 64.24 152.602 64.24ZM170.206 64V52.864H174.35C175.16 52.864 175.907 53.0667 176.59 53.472C177.283 53.8773 177.832 54.4267 178.238 55.12C178.643 55.8027 178.846 56.5493 178.846 57.36V59.504C178.846 60.3147 178.643 61.0667 178.238 61.76C177.832 62.4427 177.283 62.9867 176.59 63.392C175.907 63.7973 175.16 64 174.35 64H170.206ZM192.209 55.68V52.864H199.409V55.68H196.097V61.184H199.409V64H192.209V61.184H195.521V55.68H192.209ZM212.773 57.2C212.773 56.368 212.981 55.5947 213.397 54.88C213.813 54.1653 214.373 53.6 215.077 53.184C215.792 52.768 216.57 52.56 217.413 52.56C218.256 52.56 219.029 52.768 219.733 53.184C220.448 53.6 221.013 54.1653 221.429 54.88C221.845 55.5947 222.053 56.368 222.053 57.2V59.664C222.053 60.496 221.845 61.2693 221.429 61.984C221.013 62.6987 220.448 63.264 219.733 63.68C219.029 64.096 218.256 64.304 217.413 64.304C216.57 64.304 215.792 64.096 215.077 63.68C214.373 63.264 213.813 62.6987 213.397 61.984C212.981 61.2693 212.773 60.496 212.773 59.664V57.2ZM215.685 59.664C215.685 60.176 215.845 60.6133 216.165 60.976C216.485 61.3387 216.901 61.52 217.413 61.52C217.914 61.52 218.325 61.3387 218.645 60.976C218.965 60.6133 219.125 60.176 219.125 59.664V57.184C219.125 56.6613 218.965 56.224 218.645 55.872C218.325 55.52 217.914 55.344 217.413 55.344C216.901 55.344 216.485 55.52 216.165 55.872C215.845 56.224 215.685 56.6613 215.685 57.184V59.664Z" fill="black"/>
<g clip-path="url(#clip0_162_624)">
<path d="M131.499 9.68677C130.852 9.68677 130.327 10.2115 130.327 10.8586C130.327 11.5058 130.852 12.0305 131.499 12.0305C135.377 12.0305 138.531 15.1847 138.531 19.0618C138.531 19.709 139.056 20.2336 139.703 20.2336C140.35 20.2336 140.875 19.709 140.875 19.0618C140.875 13.8924 136.669 9.68677 131.499 9.68677Z" fill="#FF0027"/>
<path d="M128.479 5.3149C123.185 6.42123 118.892 10.6731 117.762 16.0005C116.808 20.4991 117.984 25.0155 120.987 28.3917C122.455 30.0419 123.297 32.2203 123.297 34.3743V36.718C123.297 38.2774 124.318 39.6022 125.726 40.061C126.189 42.7973 128.564 44.9992 131.5 44.9992C134.435 44.9992 136.811 42.798 137.274 40.061C138.682 39.6022 139.703 38.2774 139.703 36.7179V34.3742C139.703 32.216 140.548 30.0638 142.081 28.3141C144.326 25.7532 145.562 22.4672 145.562 19.0618C145.562 10.1895 137.441 3.44255 128.479 5.3149ZM131.5 42.6555C129.994 42.6555 128.673 41.619 128.185 40.2258H134.815C134.327 41.619 133.006 42.6555 131.5 42.6555ZM137.359 36.718C137.359 37.3642 136.834 37.8899 136.187 37.8899H126.812C126.166 37.8899 125.641 37.3642 125.641 36.718V35.5461H137.359V36.718ZM140.319 26.7694C138.684 28.634 137.679 30.8824 137.424 33.2024H125.576C125.321 30.8811 124.319 28.6106 122.738 26.834C120.235 24.0202 119.257 20.2487 120.055 16.4867C120.986 12.095 124.564 8.5274 128.959 7.60919C136.461 6.04146 143.219 11.6752 143.219 19.0618C143.219 21.8986 142.189 24.6359 140.319 26.7694Z" fill="#FF0027"/>
<path d="M115.016 19.0618H112.672C112.025 19.0618 111.5 19.5865 111.5 20.2336C111.5 20.8808 112.025 21.4055 112.672 21.4055H115.016C115.663 21.4055 116.188 20.8808 116.188 20.2336C116.188 19.5865 115.663 19.0618 115.016 19.0618Z" fill="#FF0027"/>
<path d="M115.501 13.2023L113.844 11.545C113.386 11.0874 112.644 11.0874 112.186 11.545C111.729 12.0027 111.729 12.7446 112.186 13.2023L113.844 14.8596C114.301 15.3172 115.043 15.3173 115.501 14.8596C115.959 14.4019 115.959 13.6599 115.501 13.2023Z" fill="#FF0027"/>
<path d="M115.501 25.6075C115.043 25.1499 114.301 25.1499 113.844 25.6075L112.186 27.2648C111.729 27.7224 111.729 28.4644 112.186 28.9221C112.644 29.3797 113.386 29.3798 113.844 28.9221L115.501 27.2648C115.959 26.8071 115.959 26.0652 115.501 25.6075Z" fill="#FF0027"/>
<path d="M150.328 19.0618H147.984C147.337 19.0618 146.812 19.5865 146.812 20.2336C146.812 20.8808 147.337 21.4055 147.984 21.4055H150.328C150.975 21.4055 151.5 20.8808 151.5 20.2336C151.5 19.5865 150.975 19.0618 150.328 19.0618Z" fill="#FF0027"/>
<path d="M150.813 11.545C150.356 11.0874 149.614 11.0874 149.156 11.545L147.499 13.2023C147.041 13.6599 147.041 14.4019 147.499 14.8596C147.956 15.3171 148.698 15.3172 149.156 14.8596L150.813 13.2023C151.271 12.7446 151.271 12.0027 150.813 11.545Z" fill="#FF0027"/>
<path d="M150.813 27.2648L149.156 25.6075C148.699 25.1499 147.957 25.1499 147.499 25.6075C147.041 26.0652 147.041 26.8071 147.499 27.2648L149.156 28.9221C149.614 29.3796 150.356 29.3797 150.813 28.9221C151.271 28.4644 151.271 27.7224 150.813 27.2648Z" fill="#FF0027"/>
</g>
<defs>
<clipPath id="clip0_162_624">
<rect width="40" height="40" fill="white" transform="translate(111.5 5)"/>
</clipPath>
</defs>
    </symbol>

    <symbol id="go" viewBox="0 0 68 40">
<path d="M65 18.2679C66.3333 19.0377 66.3333 20.9622 65 21.732L41 35.5885C39.6667 36.3583 38 35.396 38 33.8564L38 6.14359C38 4.60399 39.6667 3.64174 41 4.41154L65 18.2679Z" fill="black"/>
<path d="M9.08848 18.95L7.56348 19.025C7.49681 19.025 7.46348 18.9167 7.46348 18.7C7.46348 18.4833 7.53848 18.1167 7.68848 17.6C7.83848 17.0833 8.03014 16.7083 8.26348 16.475C8.49681 16.2417 10.4635 16.125 14.1635 16.125C15.1135 16.125 15.5885 16.1667 15.5885 16.25C15.5885 16.6333 15.4801 17.1583 15.2635 17.825C15.0635 18.475 14.8885 18.9083 14.7385 19.125C14.7218 23.6083 14.6635 25.9333 14.5635 26.1C14.4801 26.2667 14.1801 26.45 13.6635 26.65C13.1468 26.8667 12.7051 26.975 12.3385 26.975C11.9885 26.975 11.8135 26.95 11.8135 26.9C11.8135 26 11.7718 25.4583 11.6885 25.275L11.6385 25.225L11.5635 25.275C10.5801 26.2583 9.29681 26.75 7.71348 26.75C5.54681 26.75 3.91348 26.05 2.81348 24.65C1.73014 23.25 1.18848 21.4417 1.18848 19.225C1.18848 17.3583 1.53014 15.6667 2.21348 14.15C2.64681 13.2 3.19681 12.375 3.86348 11.675C4.54681 10.975 5.48014 10.3917 6.66348 9.925C7.86348 9.45833 9.24681 9.225 10.8135 9.225C11.1635 9.225 11.6468 9.26667 12.2635 9.35C12.8801 9.43333 13.2051 9.5 13.2385 9.55C13.2885 9.6 13.3135 9.78333 13.3135 10.1C13.3135 10.4167 13.2718 10.85 13.1885 11.4C13.1051 11.95 13.0135 12.275 12.9135 12.375C12.3968 12.1083 11.5218 11.975 10.2885 11.975C8.52181 11.975 7.11348 12.5667 6.06348 13.75C5.01348 14.9333 4.48848 16.6667 4.48848 18.95C4.48848 20.4167 4.78848 21.5917 5.38848 22.475C5.98848 23.3583 6.83014 23.8 7.91348 23.8C8.99681 23.8 9.87181 23.5333 10.5385 23C11.2218 22.4667 11.5635 22.0167 11.5635 21.65V20.85C11.5635 19.8333 11.5135 19.275 11.4135 19.175C11.2968 19.025 10.5218 18.95 9.08848 18.95ZM24.135 26.75C21.6516 26.75 19.81 26.0333 18.61 24.6C17.4266 23.1667 16.835 21.3667 16.835 19.2C16.835 18.15 16.96 17.1667 17.21 16.25C17.46 15.3333 17.6933 14.6833 17.91 14.3C18.1266 13.9167 18.3016 13.6917 18.435 13.625C18.5683 13.5417 19.0933 13.5 20.01 13.5H20.485C20.485 12.6667 20.6433 11.9417 20.96 11.325C21.2933 10.7083 21.7183 10.25 22.235 9.95C23.2016 9.4 24.1183 9.125 24.985 9.125C29.6183 9.125 31.935 12.0417 31.935 17.875C31.935 19.6917 31.6266 21.3083 31.01 22.725C30.66 23.525 30.2016 24.2167 29.635 24.8C29.0683 25.3667 28.31 25.8333 27.36 26.2C26.4266 26.5667 25.3516 26.75 24.135 26.75ZM28.71 17.675C28.71 13.7583 27.5433 11.8 25.21 11.8C24.5433 11.8 24.0266 11.9917 23.66 12.375C23.31 12.7583 23.135 13.25 23.135 13.85C23.135 14.4333 23.3183 15.125 23.685 15.925C24.0683 16.725 24.4516 17.3583 24.835 17.825L25.385 18.525C25.385 18.725 25.0766 18.9167 24.46 19.1C23.8433 19.2667 23.3516 19.35 22.985 19.35C22.9016 19.35 22.7266 19.1917 22.46 18.875C22.21 18.5583 21.91 18.075 21.56 17.425C21.2266 16.7583 20.985 16.0583 20.835 15.325C20.585 15.575 20.385 16.0833 20.235 16.85C20.085 17.6167 20.01 18.3583 20.01 19.075C20.01 20.475 20.4016 21.675 21.185 22.675C21.9683 23.6583 22.96 24.15 24.16 24.15C27.1933 24.15 28.71 21.9917 28.71 17.675Z" fill="black"/>
    </symbol>

    <symbol id="mouse" viewBox="0 0 20 30">
<path d="M9.99994 0C7.34736 0.00186053 4.80354 1.0112 2.92822 2.80705C1.05339 4.60245 0 7.03692 0 9.57522V20.4314C0 23.8497 1.90594 27.0089 5.00003 28.7183C8.09401 30.4272 11.906 30.4272 15 28.7183C18.0939 27.009 20 23.8497 20 20.4314V9.57522C19.9981 7.03752 18.9442 4.60388 17.0693 2.80896C15.195 1.01356 12.6521 0.0036913 9.99994 0V0ZM11.345 11.1422C11.345 11.8534 10.7428 12.4293 9.99994 12.4293C9.25713 12.4293 8.65486 11.8535 8.65486 11.1422V5.66804C8.65486 4.95732 9.25713 4.38097 9.99994 4.38097C10.7428 4.38097 11.345 4.95727 11.345 5.66804V11.1422Z" fill="black"/>
    </symbol>

    <symbol id="num" viewBox="0 0 36 16">
<path d="M20.1164 10.84C18.6897 10.84 17.5831 10.4 16.7964 9.52C16.0097 8.64 15.6164 7.44667 15.6164 5.94C15.6164 4.86 15.8431 3.94 16.2964 3.18C16.7497 2.42 17.3497 1.85333 18.0964 1.48C18.8564 1.09333 19.6764 0.899999 20.5564 0.899999C21.9431 0.899999 23.0364 1.33333 23.8364 2.2C24.6364 3.05333 25.0364 4.22 25.0364 5.7C25.0364 6.78 24.8097 7.70667 24.3564 8.48C23.9031 9.25333 23.3031 9.84 22.5564 10.24C21.8097 10.64 20.9964 10.84 20.1164 10.84ZM2.29641 2.64L0.516406 2.36V1.14H5.01641L10.6364 10.28L11.7364 12.82L11.7164 2.64L9.85641 2.36V1.14H15.1364V2.36L13.4164 2.64V16H10.9764L5.09641 6.48L3.99641 4.08V14.58L5.97641 14.82V16H0.516406V14.82L2.29641 14.58V2.64ZM20.3964 9.72C21.0364 9.72 21.5097 9.41333 21.8164 8.8C22.1364 8.18667 22.2964 7.22 22.2964 5.9C22.2964 4.58 22.1297 3.6 21.7964 2.96C21.4631 2.32 20.9631 2 20.2964 2C19.0031 2 18.3564 3.23333 18.3564 5.7C18.3564 8.38 19.0364 9.72 20.3964 9.72ZM24.7564 14.26H15.8364V12.72H24.7564V14.26ZM30.0834 6.2C29.8568 6.28 29.4501 6.38667 28.8634 6.52C28.2768 6.64 27.8168 6.72 27.4834 6.76L27.2634 5.36C27.9834 5.21333 28.7301 4.95333 29.5034 4.58C30.2901 4.19333 30.9301 3.79333 31.4234 3.38H31.4434L33.0234 3.6V14.6L35.3034 14.82V16H27.6834V14.82L30.0834 14.62V6.2Z" fill="#FF0027"/>
    </symbol>

        <symbol id="idea" viewBox="0 0 40 40">
<path d="M19.9989 4.68677C19.3517 4.68677 18.827 5.21145 18.827 5.85864C18.827 6.50583 19.3517 7.03052 19.9989 7.03052C23.8766 7.03052 27.0313 10.1847 27.0313 14.0618C27.0313 14.709 27.556 15.2336 28.2032 15.2336C28.8504 15.2336 29.3751 14.709 29.3751 14.0618C29.3751 8.89239 25.169 4.68677 19.9989 4.68677Z" fill="#FF0027"/>
<path d="M16.9792 0.314897C11.6846 1.42123 7.39166 5.6731 6.26205 11.0005C5.30822 15.4991 6.48361 20.0155 9.48681 23.3917C10.9549 25.0419 11.7967 27.2203 11.7967 29.3743V31.718C11.7967 33.2774 12.8176 34.6022 14.2259 35.061C14.689 37.7973 17.064 39.9992 19.9999 39.9992C22.9349 39.9992 25.3106 37.798 25.7738 35.061C27.1821 34.6022 28.203 33.2774 28.203 31.7179V29.3742C28.203 27.216 29.0477 25.0638 30.5813 23.3141C32.8261 20.7532 34.0624 17.4672 34.0624 14.0618C34.0624 5.18951 25.9413 -1.55745 16.9792 0.314897ZM19.9999 37.6555C18.4935 37.6555 17.1727 36.619 16.6849 35.2258H23.3147C22.827 36.619 21.5063 37.6555 19.9999 37.6555ZM25.8592 31.718C25.8592 32.3642 25.3335 32.8899 24.6874 32.8899H15.3124C14.6662 32.8899 14.1405 32.3642 14.1405 31.718V30.5461H25.8592V31.718ZM28.8188 21.7694C27.1844 23.634 26.1788 25.8824 25.9237 28.2024H14.0763C13.8214 25.8811 12.8185 23.6106 11.2381 21.834C8.73517 19.0202 7.75712 15.2487 8.55486 11.4867C9.48603 7.09497 13.0642 3.5274 17.4586 2.60919C24.9605 1.04146 31.7186 6.67521 31.7186 14.0618C31.7186 16.8986 30.6888 19.6359 28.8188 21.7694Z" fill="#FF0027"/>
<path d="M3.51562 14.0618H1.17188C0.524687 14.0618 0 14.5865 0 15.2336C0 15.8808 0.524687 16.4055 1.17188 16.4055H3.51562C4.16281 16.4055 4.6875 15.8808 4.6875 15.2336C4.6875 14.5865 4.16281 14.0618 3.51562 14.0618Z" fill="#FF0027"/>
<path d="M4.00091 8.20241L2.34365 6.54515C1.88607 6.08749 1.14404 6.08749 0.686382 6.54515C0.228726 7.0028 0.228726 7.74476 0.686382 8.20241L2.34365 9.85968C2.80123 10.3173 3.54326 10.3174 4.00091 9.85968C4.45857 9.40202 4.45857 8.66007 4.00091 8.20241Z" fill="#FF0027"/>
<path d="M4.00091 20.6076C3.54326 20.15 2.80123 20.15 2.34365 20.6076L0.686382 22.2649C0.228726 22.7226 0.228726 23.4645 0.686382 23.9222C1.14396 24.3798 1.88599 24.3799 2.34365 23.9222L4.00091 22.2649C4.45857 21.8073 4.45857 21.0653 4.00091 20.6076Z" fill="#FF0027"/>
<path d="M38.8281 14.0618H36.4844C35.8372 14.0618 35.3125 14.5865 35.3125 15.2336C35.3125 15.8808 35.8372 16.4055 36.4844 16.4055H38.8281C39.4753 16.4055 40 15.8808 40 15.2336C40 14.5865 39.4753 14.0618 38.8281 14.0618Z" fill="#FF0027"/>
<path d="M39.3134 6.54515C38.8558 6.08749 38.1138 6.08749 37.6562 6.54515L35.9989 8.20241C35.5412 8.66007 35.5412 9.40202 35.9989 9.85968C36.4565 10.3173 37.1985 10.3173 37.6562 9.85968L39.3134 8.20241C39.7711 7.74475 39.7711 7.0028 39.3134 6.54515Z" fill="#FF0027"/>
<path d="M39.3134 22.2649L37.6562 20.6076C37.1986 20.15 36.4565 20.15 35.9989 20.6076C35.5412 21.0653 35.5412 21.8073 35.9989 22.2649L37.6562 23.9222C38.1137 24.3798 38.8558 24.3798 39.3134 23.9222C39.7711 23.4645 39.7711 22.7226 39.3134 22.2649Z" fill="#FF0027"/>
    </symbol>

        <symbol id="vk" viewBox="0 0 32 32">
<path d="M4.13644 8.07766C3.7875 8.1714 3.56356 8.30681 3.35524 8.54638C2.83965 9.12967 2.88132 9.93169 3.50627 11.8014C4.40725 14.4939 5.99568 17.4103 7.75077 19.6081C9.99019 22.4152 12.3546 24.0088 15.0419 24.5348C15.6981 24.665 17.2397 24.665 17.7449 24.54C18.5885 24.3265 19.0521 23.9463 19.2083 23.3318C19.2291 23.2433 19.2447 22.5818 19.2395 21.8631C19.2343 21.1392 19.2447 20.4674 19.2656 20.3633L19.2968 20.181L19.5937 20.3372C20.2291 20.6757 21.0988 21.4726 22.3956 22.8943C23.3643 23.9568 23.6559 24.2224 24.1298 24.4463L24.5204 24.6338H26.4213C28.6712 24.6338 28.7024 24.6286 29.192 24.139C29.4263 23.8995 29.5044 23.7797 29.5774 23.5401C29.9107 22.3892 29.0826 21.0143 26.2078 17.9572C25.6401 17.353 25.1714 16.8375 25.1714 16.8218C25.1714 16.801 25.4006 16.4573 25.687 16.0511C26.7703 14.4991 27.9212 12.5982 28.5045 11.4055C29.0201 10.3535 29.0982 10.0983 29.1034 9.50464C29.1034 8.92656 29.0097 8.69741 28.6555 8.39013C28.2389 8.03599 28.1347 8.02037 26.0307 8.02037C24.1923 8.02037 24.1507 8.02037 23.859 8.14015C23.6871 8.20786 23.432 8.37451 23.2705 8.52554C22.9737 8.79115 22.9424 8.84844 22.3591 10.1192C21.5883 11.7857 20.5832 13.4419 19.7239 14.4626C19.1666 15.1188 19.2135 15.3063 19.25 12.4419C19.2864 9.23383 19.25 8.90052 18.7708 8.41097C18.3646 7.98912 18.3594 7.98912 15.4481 8.00475L12.9535 8.02037L12.6463 8.17661C12.1046 8.45263 11.7817 9.03592 11.8599 9.59838C11.9015 9.90565 12.089 10.3119 12.3494 10.6608C12.464 10.8118 12.6046 11.0306 12.6619 11.1452C12.891 11.6087 12.9014 11.7232 12.9067 13.947V16.0771L12.7035 15.8479C12.4431 15.5563 11.7297 14.4678 11.3443 13.7752C10.7141 12.6503 10.0891 11.2441 9.54751 9.74942C9.19858 8.78594 8.91735 8.41097 8.31844 8.14015C8.06845 8.02558 8.01637 8.02037 6.24046 8.00995C4.76139 7.99954 4.36559 8.00995 4.13644 8.07766ZM7.73514 9.74942C7.78201 9.8015 7.89138 10.0411 7.97471 10.2858C8.76632 12.5148 9.87041 14.7491 10.9537 16.2854C11.3755 16.8895 12.188 17.7072 12.5629 17.9103C13.1618 18.2332 13.8962 18.1238 14.2347 17.6603C14.568 17.2124 14.5732 17.1447 14.5732 14.296C14.5732 11.968 14.5628 11.6764 14.4743 11.3014C14.3753 10.8535 14.0993 10.2129 13.9066 9.95253C13.8389 9.86399 13.766 9.75983 13.7451 9.72338C13.7139 9.6765 14.1097 9.66088 15.6356 9.66088H17.5678V12.2753C17.573 13.7179 17.5938 15.1292 17.6147 15.4157C17.6667 16.0302 17.8074 16.4104 18.073 16.6448C18.3125 16.8531 18.4688 16.9104 18.8229 16.9052C19.5937 16.9052 20.5051 16.2281 21.4477 14.9626C22.3279 13.7804 23.182 12.3065 23.9319 10.6921C24.1559 10.1973 24.385 9.75983 24.4319 9.72338C24.4944 9.6765 24.885 9.66088 25.963 9.66088C27.0879 9.66088 27.4108 9.6765 27.4108 9.72338C27.4108 9.75983 27.3275 9.98898 27.2286 10.2285C26.8848 11.0618 25.7547 12.9627 24.5256 14.7647C23.6663 16.025 23.484 16.3896 23.484 16.8427C23.4892 17.4624 23.6142 17.6499 25.0152 19.1133C25.6401 19.7643 26.5203 20.7591 26.9525 21.3059C27.4265 21.8996 27.9837 22.8006 27.9837 22.9724C27.9837 22.9829 27.3015 22.9933 26.463 22.9933H24.9475L24.7235 22.8631C24.6037 22.7902 24.1715 22.3683 23.7601 21.9152C21.9425 19.8997 20.7446 18.8998 19.7916 18.6082C19.276 18.4519 18.625 18.4884 18.2813 18.6915C17.9844 18.8634 17.8126 19.1081 17.6928 19.53C17.6199 19.7852 17.599 20.1185 17.5886 21.3476C17.573 22.6912 17.5626 22.8631 17.4845 22.9047C17.4376 22.9308 17.1147 22.9672 16.7658 22.9777C14.9013 23.061 13.0212 22.3371 11.2557 20.8632C9.55793 19.4414 7.9018 17.2645 6.5321 14.6553C5.73008 13.119 4.87076 10.9264 4.73015 10.0515C4.70931 9.9369 4.68327 9.8015 4.66765 9.74942C4.64682 9.66609 4.74056 9.66088 6.15192 9.66088C7.52162 9.66088 7.66223 9.6713 7.73514 9.74942Z"/>
    </symbol>

            <symbol id="inst" viewBox="0 0 32 32">
<path d="M10.2977 6.05827C9.17665 6.22623 8.28996 6.67153 7.4814 7.48009C6.64939 8.3121 6.19628 9.24176 6.04394 10.4097C5.98535 10.8667 5.98535 21.132 6.04394 21.589C6.19628 22.7569 6.64939 23.6866 7.4814 24.5186C8.3134 25.3506 9.24306 25.8037 10.411 25.9561C10.868 26.0146 21.1333 26.0146 21.5903 25.9561C22.7582 25.8037 23.6879 25.3506 24.5199 24.5186C25.3519 23.6866 25.805 22.7569 25.9574 21.589C26.0159 21.132 26.0159 10.8667 25.9574 10.4097C25.805 9.24176 25.3519 8.3121 24.5199 7.48009C23.6879 6.64809 22.7582 6.19498 21.5903 6.04264C21.0903 5.97624 10.7391 5.99186 10.2977 6.05827ZM22.0044 7.82383C22.4458 7.97617 22.5434 8.02695 22.9067 8.27694C23.4848 8.67537 23.9418 9.29644 24.1723 9.99564L24.3012 10.3941V15.9993C24.3012 21.3625 24.2973 21.6164 24.2269 21.839C23.9652 22.6866 23.5121 23.3155 22.8442 23.7686C22.5551 23.9639 22.3051 24.0772 21.8989 24.2061L21.6059 24.2999H16.0007H10.3954L9.99694 24.171C8.90323 23.8116 8.13763 23.0108 7.77436 21.839C7.70405 21.6164 7.70014 21.3625 7.70014 15.9993C7.70014 10.6362 7.70405 10.3823 7.77436 10.1597C8.05169 9.2691 8.53605 8.62068 9.25868 8.16757C9.56336 7.97617 10.0868 7.77305 10.411 7.71837C10.5086 7.70274 13.0789 7.69102 16.1178 7.69493L21.645 7.69884L22.0044 7.82383Z"/>
<path d="M21.1569 9.37425C20.8795 9.43675 20.7194 9.52269 20.5319 9.7141C20.278 9.97583 20.1998 10.1829 20.1998 10.5891C20.1998 10.8938 20.2155 10.968 20.3053 11.136C20.5202 11.5423 20.8834 11.7806 21.3366 11.8118C21.6686 11.8314 21.8444 11.7845 22.1218 11.597C22.8991 11.0735 22.8093 9.88207 21.9655 9.47972C21.6764 9.34299 21.446 9.31174 21.1569 9.37425Z" />
<path d="M15.3601 11.0428C13.4734 11.3045 11.8641 12.617 11.2782 14.3825C11.079 14.9841 11.0243 15.3317 11.0243 15.9997C11.0243 16.6676 11.079 17.0153 11.2782 17.6207C11.7508 19.0347 12.9695 20.2495 14.3914 20.7261C14.9851 20.9214 15.3367 20.9761 16.0007 20.9761C16.6647 20.9761 17.0163 20.9214 17.61 20.7261C19.0318 20.2495 20.2506 19.0347 20.7232 17.6207C20.9224 17.0153 20.9771 16.6676 20.9771 15.9997C20.9771 15.1247 20.8091 14.4099 20.4302 13.6951C19.7076 12.3396 18.4655 11.4061 16.9577 11.0975C16.5827 11.0194 15.7312 10.9881 15.3601 11.0428ZM17.0046 12.8318C17.4225 12.9685 17.5358 13.0232 17.8561 13.238C18.5123 13.6794 18.9537 14.2927 19.2076 15.1013C19.2857 15.3552 19.3014 15.4763 19.3014 15.9997C19.3014 16.6442 19.2545 16.8825 19.024 17.3942C18.735 18.0504 18.0514 18.734 17.3913 19.0269C16.8835 19.2535 16.6452 19.3003 16.0007 19.3003C15.3562 19.3003 15.1179 19.2535 14.6101 19.0269C13.95 18.734 13.2664 18.0504 12.9774 17.3942C12.7469 16.8825 12.7 16.6442 12.7 15.9997C12.7 15.4763 12.7156 15.3552 12.7938 15.1013C12.9266 14.6794 13.0438 14.4333 13.2664 14.1091C13.7078 13.4685 14.325 13.0271 15.0828 12.8045C15.4695 12.6912 15.5281 12.6834 16.1179 12.699C16.5827 12.7107 16.6882 12.7263 17.0046 12.8318Z"/>
    </symbol>

                <symbol id="tg" viewBox="0 0 32 32">
<path d="M25.1554 7.27506C25.0444 7.30792 23.4997 7.8872 21.7249 8.56508C19.9501 9.24296 15.9198 10.7795 12.7687 11.9832C9.61758 13.187 6.91839 14.2264 6.7746 14.2962C6.49112 14.4318 6.19943 14.6906 6.09261 14.896C5.9899 15.1015 5.96936 15.3932 6.04742 15.6314C6.1337 15.8862 6.44593 16.1943 6.77049 16.3463C6.89374 16.4038 7.8592 16.6996 8.91505 16.9995L10.8336 17.55L11.8648 20.508C12.5468 22.4595 12.9494 23.5441 13.0398 23.7002C13.2165 23.9878 13.4959 24.2425 13.7958 24.3863C13.993 24.4808 14.0751 24.4931 14.4326 24.4931C14.7777 24.4931 14.8804 24.4767 15.057 24.3945C15.398 24.2425 15.5582 24.1111 16.7949 22.9731C17.4358 22.3856 17.9698 21.9049 17.9904 21.9049C18.0068 21.9049 18.7669 22.5047 19.6789 23.2401C20.5869 23.9714 21.425 24.6328 21.5318 24.7068C21.9796 25.0108 22.6493 25.0889 23.0889 24.8917C23.4586 24.7314 23.8119 24.3247 23.9639 23.8974C24.0009 23.7947 24.6993 20.4218 25.5169 16.3997C26.8644 9.75239 27 9.04986 27 8.69654C26.9959 8.03099 26.7699 7.62837 26.2605 7.37777C25.94 7.22165 25.4963 7.18056 25.1554 7.27506ZM25.7428 8.49934C25.7716 8.5281 25.7921 8.60616 25.7921 8.676C25.7921 8.88964 22.8341 23.4168 22.7602 23.5647C22.5712 23.9508 22.4726 23.9015 21.0347 22.7471C17.103 19.5878 16.1581 18.8154 16.1581 18.7743C16.1581 18.7497 17.5919 17.209 19.342 15.348C21.0922 13.491 22.5589 11.9175 22.6 11.8559C22.6986 11.7039 22.6986 11.4039 22.6 11.2314C22.5178 11.0876 22.222 10.9151 22.0618 10.9151C21.9549 10.9151 21.4825 11.1533 15.2419 14.3414L11.2486 16.3833L9.39983 15.8574C8.38507 15.5698 7.55108 15.3233 7.55108 15.311C7.55108 15.2987 8.73839 14.8385 10.1927 14.288C11.643 13.7334 13.6725 12.961 14.6996 12.5666C15.7267 12.1763 17.1441 11.634 17.8425 11.367C19.3256 10.8 25.332 8.51167 25.4224 8.4788C25.5333 8.43772 25.6935 8.45004 25.7428 8.49934ZM18.9846 13.9224C18.1629 14.7851 14.7243 18.458 14.6832 18.5278C14.6503 18.5771 14.4367 19.3865 14.2025 20.3232C13.9724 21.2599 13.7752 22.0487 13.7588 22.0774C13.7465 22.1021 13.3603 21.0504 12.9001 19.7398C12.4441 18.4251 12.0744 17.3487 12.0785 17.3446C12.099 17.3282 16.0307 15.3233 17.5138 14.5715C18.3273 14.1565 19.0093 13.8032 19.0339 13.7868C19.0545 13.7662 19.0914 13.7498 19.112 13.7498C19.1366 13.7498 19.0791 13.8279 18.9846 13.9224ZM16.3142 20.5245C16.6922 20.8285 17.0003 21.0873 16.9962 21.0997C16.9921 21.1366 14.8187 23.1251 14.8023 23.1086C14.7941 23.1004 14.9543 22.4308 15.1556 21.6173C15.3528 20.8039 15.5295 20.0972 15.5418 20.0438C15.5541 19.9904 15.5788 19.9534 15.5952 19.9616C15.6117 19.9699 15.9362 20.2205 16.3142 20.5245Z"/>
    </symbol>

</svg>