<svg width="20" height="36" viewBox="0 0 20 36" fill="none" xmlns="http://www.w3.org/2000/svg">
<path d="M18.9985 0.00749033L14.3302 0C9.08543 0 5.69605 3.47738 5.69605 8.85956V12.9444H1.00224C0.59664 12.9444 0.268188 13.2732 0.268188 13.6788V19.5973C0.268188 20.0029 0.597014 20.3314 1.00224 20.3314H5.69605V35.2656C5.69605 35.6712 6.02451 35.9996 6.43011 35.9996H12.5542C12.9598 35.9996 13.2883 35.6708 13.2883 35.2656V20.3314H18.7764C19.182 20.3314 19.5105 20.0029 19.5105 19.5973L19.5127 13.6788C19.5127 13.4841 19.4352 13.2976 19.2977 13.1598C19.1603 13.0219 18.973 12.9444 18.7783 12.9444H13.2883V9.48163C13.2883 7.81728 13.6849 6.97237 15.8529 6.97237L18.9978 6.97125C19.403 6.97125 19.7314 6.64242 19.7314 6.2372V0.741542C19.7314 0.33669 19.4034 0.00823936 18.9985 0.00749033Z" fill="white"/>
</svg>
